<svg xmlns="http://www.w3.org/2000/svg" xmlns:xlink="http://www.w3.org/1999/xlink" width="335.603" height="309.365" viewBox="0 0 335.603 309.365">
  <defs>
    <filter id="Subtraction_5" x="3.731" y="7.044" width="331.872" height="302.321" filterUnits="userSpaceOnUse">
      <feOffset dx="7" dy="7" input="SourceAlpha"/>
      <feGaussianBlur stdDeviation="10" result="blur"/>
      <feFlood flood-color="#fff" flood-opacity="0.451"/>
      <feComposite operator="in" in2="blur"/>
      <feComposite in="SourceGraphic"/>
    </filter>
    <clipPath id="clip-path">
      <rect id="Rectangle_4" data-name="Rectangle 4" width="17.074" height="18.387"/>
    </clipPath>
    <filter id="hi_there_what_s_up_" x="205.603" y="0" width="108" height="38" filterUnits="userSpaceOnUse">
      <feOffset dx="3" dy="3" input="SourceAlpha"/>
      <feGaussianBlur stdDeviation="4" result="blur-2"/>
      <feFlood flood-opacity="0.702"/>
      <feComposite operator="in" in2="blur-2"/>
      <feComposite in="SourceGraphic"/>
    </filter>
    <filter id="I_look_cool_in_spectacles_right_" x="0" y="263.618" width="158" height="38" filterUnits="userSpaceOnUse">
      <feOffset dx="3" dy="3" input="SourceAlpha"/>
      <feGaussianBlur stdDeviation="4" result="blur-3"/>
      <feFlood flood-opacity="0.702"/>
      <feComposite operator="in" in2="blur-3"/>
      <feComposite in="SourceGraphic"/>
    </filter>
  </defs>
  <g id="Group_500" data-name="Group 500" transform="translate(-40.017 -910)">
    <g id="Group_76" data-name="Group 76" transform="translate(48.947 940.044)">
      <g transform="matrix(1, 0, 0, 1, -8.93, -30.04)" filter="url(#Subtraction_5)">
        <path id="Subtraction_5-2" data-name="Subtraction 5" d="M213.858,242.321H15a15,15,0,0,1-15-15V15A15,15,0,0,1,15,0H256.872a15,15,0,0,1,15,15V177.813l-58.013,64.507Z" transform="translate(26.73 30.04)" fill="#fff"/>
      </g>
      <rect id="Rectangle_106" data-name="Rectangle 106" width="42.028" height="99.818" transform="translate(0.069 142.503)" fill="#fff"/>
      <path id="Path_3495" data-name="Path 3495" d="M-20136.439-21502.371c-1.1,10.223-9.055,15.811-16.375,17.367s21.15,2.842,21.15,2.842S-20135.338-21512.592-20136.439-21502.371Z" transform="translate(20154.02 21627.568)" fill="#fff"/>
    </g>
    <g id="Group_77" data-name="Group 77" transform="translate(75.941 948.581)">
      <g id="Group_9" data-name="Group 9" transform="translate(0)" clip-path="url(#clip-path)">
        <path id="Path_9" data-name="Path 9" d="M16.89,32.212h0A1.89,1.89,0,0,1,15,30.322V21.89a1.89,1.89,0,0,1,3.78,0v8.432a1.89,1.89,0,0,1-1.89,1.89" transform="translate(-10.639 -14.185)"/>
        <path id="Path_10" data-name="Path 10" d="M2.894,14A1.879,1.879,0,0,1,.886,14,1.887,1.887,0,0,0,0,15.6V26.067a1.89,1.89,0,0,0,3.78,0V15.6A1.887,1.887,0,0,0,2.894,14" transform="translate(0 -9.929)"/>
        <path id="Path_11" data-name="Path 11" d="M3.78,1.89A1.89,1.89,0,1,1,1.89,0,1.89,1.89,0,0,1,3.78,1.89"/>
        <path id="Path_12" data-name="Path 12" d="M31.89,38.6h0A1.89,1.89,0,0,1,30,36.705V30.89a1.89,1.89,0,0,1,3.78,0v5.815a1.89,1.89,0,0,1-1.89,1.89" transform="translate(-21.277 -20.568)"/>
        <path id="Path_13" data-name="Path 13" d="M46.89,39.6h0A1.89,1.89,0,0,1,45,37.705V31.89a1.89,1.89,0,0,1,3.78,0v5.815a1.89,1.89,0,0,1-1.89,1.89" transform="translate(-31.916 -21.277)"/>
      </g>
    </g>
    <rect id="Rectangle_107" data-name="Rectangle 107" width="8.537" height="8.537" transform="translate(52.3 1086.487)"/>
    <rect id="Rectangle_108" data-name="Rectangle 108" width="8.537" height="8.537" transform="translate(52.3 1098.308)"/>
    <rect id="Rectangle_109" data-name="Rectangle 109" width="8.537" height="8.537" transform="translate(52.3 1110.128)"/>
    <rect id="Rectangle_110" data-name="Rectangle 110" width="8.537" height="8.537" transform="translate(52.3 1121.949)"/>
    <rect id="Rectangle_111" data-name="Rectangle 111" width="8.537" height="8.537" transform="translate(52.3 1133.769)"/>
    <rect id="Rectangle_112" data-name="Rectangle 112" width="8.537" height="8.537" transform="translate(52.3 1145.59)"/>
    <rect id="Rectangle_113" data-name="Rectangle 113" width="8.537" height="8.537" transform="translate(52.3 1157.41)"/>
    <rect id="Rectangle_114" data-name="Rectangle 114" width="8.537" height="8.537" transform="translate(52.3 1169.231)"/>
    <line id="Line_48" data-name="Line 48" y1="63.699" x2="57.132" transform="translate(276.561 1114.397)" fill="none" stroke="#000" stroke-linecap="round" stroke-width="2"/>
    <g transform="matrix(1, 0, 0, 1, 40.02, 910)" filter="url(#hi_there_what_s_up_)">
      <text id="hi_there_what_s_up_2" data-name="hi there, what&apos;s up!" transform="translate(214.6 20)" fill="#fff" font-size="10" font-family="SegoeUI, Segoe UI"><tspan x="0" y="0">hi there, what&apos;s up!</tspan></text>
    </g>
    <line id="Line_49" data-name="Line 49" y1="58.446" x2="52.536" transform="translate(286.412 1124.247)" fill="none" stroke="#fff" stroke-linecap="round" stroke-width="2"/>
    <g transform="matrix(1, 0, 0, 1, 40.02, 910)" filter="url(#I_look_cool_in_spectacles_right_)">
      <text id="I_look_cool_in_spectacles_right_2" data-name="I look cool in spectacles, right!" transform="translate(9 283.62)" fill="#fff" font-size="10" font-family="SegoeUI, Segoe UI"><tspan x="0" y="0">I look cool in spectacles, right!</tspan></text>
    </g>
  </g>
</svg>
